Coordinates
version=1
nRows=5
nColumns=40
inDegrees=yes

Units are S.I. units (second, meters, Newtons, ...)
Angles are in degrees.

endheader
time	pelvis_tilt	pelvis_list	pelvis_rotation	pelvis_tx	pelvis_ty	pelvis_tz	hip_flexion_r	hip_adduction_r	hip_rotation_r	knee_angle_r	knee_angle_r_beta	ankle_angle_r	subtalar_angle_r	mtp_angle_r	hip_flexion_l	hip_adduction_l	hip_rotation_l	knee_angle_l	knee_angle_l_beta	ankle_angle_l	subtalar_angle_l	mtp_angle_l	lumbar_extension	lumbar_bending	lumbar_rotation	arm_flex_r	arm_add_r	arm_rot_r	elbow_flex_r	pro_sup_r	wrist_flex_r	wrist_dev_r	arm_flex_l	arm_add_l	arm_rot_l	elbow_flex_l	pro_sup_l	wrist_flex_l	wrist_dev_l
     43.89000000	     -7.74527992	     -6.44518211	      2.32431248	      1.04069281	      0.92515916	      0.48235426	     17.94769257	      4.47859191	    -14.94909796	     16.67256218	     16.67256218	      8.72469240	      0.94049240	     -1.26387193	     35.74279977	    -12.25434745	      5.37140063	     69.31152503	     69.31152503	      6.30617186	    -18.55679511	     11.21670323	    -12.52553337	      4.55553998	      2.47933330	     17.12894159	    -20.49090863	      6.08203460	     63.65340768	     43.57239325	      0.00000000	      0.00000000	      9.35100706	     -9.13883310	     -4.54375366	     52.72495694	     44.06014580	      0.00000000	      0.00000000
     43.90264286	     -7.86135074	     -6.36563000	      2.49600064	      1.03880595	      0.92541754	      0.48248461	     17.44487168	      4.48274172	    -14.83141020	     16.29548808	     16.29548808	      8.93704661	      0.79654498	     -1.52258000	     37.21466823	    -11.99736582	      5.40281438	     67.95057322	     67.95057322	      7.28759140	    -18.72946403	     12.59996993	    -12.53668144	      4.47386247	      1.99867339	     19.74257034	    -20.55515084	      7.01074419	     65.79210610	     43.55835207	      0.00000000	      0.00000000	      8.88563916	     -8.88618093	     -4.52512299	     48.45819054	     44.16040522	      0.00000000	      0.00000000
     43.91528571	     -7.90553903	     -6.27956514	      2.69284040	      1.03696129	      0.92568486	      0.48264559	     16.88638014	      4.48979970	    -14.66997630	     15.96526306	     15.96526306	      9.24426315	      0.58757728	     -1.52247173	     38.43096744	    -11.76600465	      5.36471546	     66.28038148	     66.28038148	      7.91756446	    -18.90420822	     13.06102567	    -12.73978401	      4.34898409	      1.34637653	     22.38715869	    -20.09601486	      6.83415052	     68.02690191	     43.52492123	      0.00000000	      0.00000000	      7.70373669	     -8.88384591	     -4.32409256	     46.19701368	     44.15717917	      0.00000000	      0.00000000
     43.92792857	     -8.03102908	     -6.20109990	      2.85720453	      1.03510481	      0.92577565	      0.48266811	     16.45402979	      4.49980054	    -14.43471057	     15.68442691	     15.68442691	      9.53744156	      0.20417764	     -1.50610103	     39.62758563	    -11.47521233	      5.33195263	     64.45570951	     64.45570951	      8.99666293	    -19.00299413	     15.06571376	    -12.76824195	      4.29132914	      1.55298125	     24.38087488	    -20.75616922	      7.56391061	     70.85822787	     43.51039839	      0.00000000	      0.00000000	      8.22987399	     -8.24598121	     -4.08136766	     40.59188901	     44.26692524	      0.00000000	      0.00000000
     43.94057143	     -8.10281318	     -6.11292022	      3.03211314	      1.03335634	      0.92589758	      0.48263372	     15.95576979	      4.47431299	    -14.32645481	     15.40390157	     15.40390157	      9.85384593	      0.06838439	     -1.50915587	     40.53603277	    -11.23575571	      5.16177236	     62.22778540	     62.22778540	      9.50725811	    -19.10001288	     15.53437242	    -12.93930467	      4.18420403	      1.03610724	     26.86032365	    -20.17358744	      7.15037652	     72.98209866	     43.48700756	      0.00000000	      0.00000000	      7.13873653	     -8.21013973	     -3.88422485	     38.72671619	     44.26008153	      0.00000000	      0.00000000
